<?xml version="1.0" encoding="UTF-8" standalone="no"?>
<!-- Created with Inkscape (http://www.inkscape.org/) -->

<svg
   xmlns:dc="http://purl.org/dc/elements/1.1/"
   xmlns:cc="http://creativecommons.org/ns#"
   xmlns:rdf="http://www.w3.org/1999/02/22-rdf-syntax-ns#"
   xmlns:svg="http://www.w3.org/2000/svg"
   xmlns="http://www.w3.org/2000/svg"
   xmlns:sodipodi="http://sodipodi.sourceforge.net/DTD/sodipodi-0.dtd"
   xmlns:inkscape="http://www.inkscape.org/namespaces/inkscape"
   width="120.47243"
   height="120.47243"
   id="svg2"
   version="1.1"
   inkscape:version="0.48.4 r9939"
   sodipodi:docname="18Stiche.svg">
  <defs
     id="defs4" />
  <sodipodi:namedview
     id="base"
     pagecolor="#ffffff"
     bordercolor="#666666"
     borderopacity="1.0"
     inkscape:pageopacity="0.0"
     inkscape:pageshadow="2"
     inkscape:zoom="3.7907965"
     inkscape:cx="60.2344"
     inkscape:cy="60.248687"
     inkscape:document-units="px"
     inkscape:current-layer="layer1"
     showgrid="false"
     inkscape:window-width="1596"
     inkscape:window-height="861"
     inkscape:window-x="0"
     inkscape:window-y="18"
     inkscape:window-maximized="0"
     units="cm" />
  <metadata
     id="metadata7">
    <rdf:RDF>
      <cc:Work
         rdf:about="">
        <dc:format>image/svg+xml</dc:format>
        <dc:type
           rdf:resource="http://purl.org/dc/dcmitype/StillImage" />
        <dc:title />
      </cc:Work>
    </rdf:RDF>
  </metadata>
  <g
     inkscape:label="Layer 1"
     inkscape:groupmode="layer"
     id="layer1"
     transform="translate(0,-931.88844)">
    <g
       id="g3841"
       transform="translate(-206,527.98718)">
      <path
         id="path2985"
         d="m 266.25,403.875 c -2.46926,0 -4.9211,0.18005 -7.3125,0.46875 l 3.03125,3.71875 c 1.40806,-0.10559 2.81494,-0.1875 4.25,-0.1875 3.44217,0 6.82229,0.34533 10.09375,0.9375 l 3.375,-3.375 c -4.32957,-0.98868 -8.80832,-1.5625 -13.4375,-1.5625 z m -7.4375,0.46875 c -7.08431,0.87009 -13.77177,2.98387 -19.875,6.09375 l 4.09375,2.46875 c 4.32206,-1.96059 8.92726,-3.40272 13.75,-4.21875 l 2.03125,-4.34375 z m 21,1.09375 1.5625,4.53125 c 4.70284,1.31234 9.16198,3.20746 13.28125,5.625 l 4.3125,-2 c -5.78083,-3.75215 -12.23562,-6.56098 -19.15625,-8.15625 z M 238.84375,410.5 c -6.25399,3.20145 -11.87522,7.44475 -16.625,12.53125 l 4.6875,0.90625 c 3.43504,-3.36268 7.29627,-6.28822 11.5,-8.6875 l 0.4375,-4.75 z M 299.0625,413.65625 299,418.4375 c 3.91275,2.81085 7.45961,6.08027 10.53125,9.78125 l 4.75,-0.40625 c -4.20713,-5.55698 -9.36576,-10.34166 -15.21875,-14.15625 z m -76.90625,9.4375 c -4.73079,5.08097 -8.61542,10.98632 -11.375,17.46875 l 4.71875,-0.75 c 2.10037,-4.373 4.76631,-8.43707 7.875,-12.09375 l -1.21875,-4.625 z m 92.21875,4.8125 -1.71875,4.46875 c 2.70156,3.94119 4.89474,8.23591 6.53125,12.8125 l 4.625,1.25 c -2.0738,-6.75829 -5.28098,-13.01621 -9.4375,-18.53125 z M 210.75,440.625 c -2.66768,6.28677 -4.27826,13.11576 -4.65625,20.28125 l 4.15625,-2.3125 c 0.47706,-4.88729 1.60299,-9.59176 3.25,-14.03125 l -2.75,-3.9375 z m 113.09375,5.90625 -3.125,3.59375 c 1.14619,4.47505 1.75,9.1676 1.75,14 0,0.10433 5.7e-4,0.2083 0,0.3125 l 3.9375,2.78125 c 0.052,-1.02668 0.0625,-2.05414 0.0625,-3.09375 0,-6.12299 -0.92672,-12.02639 -2.625,-17.59375 z m -117.75,14.5 c -0.052,1.02668 -0.0937,2.05414 -0.0937,3.09375 0,6.12299 0.92672,12.02639 2.625,17.59375 l 3.125,-3.59375 c -1.14619,-4.47505 -1.75,-9.1676 -1.75,-14 0,-0.11476 -6.9e-4,-0.22915 0,-0.34375 l -3.90625,-2.75 z m 120.3125,6.28125 -4.1875,2.34375 c -0.47706,4.88729 -1.60299,9.59176 -3.25,14.03125 l 2.75,3.9375 c 2.67158,-6.29596 4.31263,-13.13557 4.6875,-20.3125 z m -117.75,14.5 c 2.0738,6.75829 5.28098,13.01621 9.4375,18.53125 l 1.71875,-4.46875 c -2.70156,-3.94119 -4.89474,-8.23591 -6.53125,-12.8125 l -4.625,-1.25 z m 113.03125,5.875 -4.71875,0.75 c -2.10037,4.373 -4.76631,8.43707 -7.875,12.09375 l 1.21875,4.625 c 4.73249,-5.08188 8.6147,-10.98462 11.375,-17.46875 z m -98.75,12.34375 -4.75,0.40625 c 4.20936,5.55993 9.36192,10.37194 15.21875,14.1875 l 0.0625,-4.8125 c -3.91275,-2.81085 -7.45961,-6.08027 -10.53125,-9.78125 z m 82.625,4.28125 c -3.43504,3.36268 -7.29627,6.28822 -11.5,8.6875 l -0.4375,4.78125 c 6.25467,-3.20087 11.87451,-7.47627 16.625,-12.5625 l -4.6875,-0.90625 z m -67.71875,8.34375 -4.34375,2.03125 c 5.77859,3.74928 12.23912,6.53053 19.15625,8.125 l -1.5625,-4.53125 c -4.69405,-1.30988 -9.13718,-3.21387 -13.25,-5.625 z m 51.59375,2.6875 c -4.32206,1.96059 -8.92726,3.40272 -13.75,4.21875 l -2.03125,4.34375 c 7.08698,-0.87042 13.76993,-2.98194 19.875,-6.09375 l -4.09375,-2.46875 z m -33.28125,4.09375 -3.375,3.375 c 4.32957,0.98868 8.83957,1.5625 13.46875,1.5625 2.46926,0 4.88985,-0.18005 7.28125,-0.46875 L 270.5,520.1875 c -1.40806,0.10559 -2.84619,0.1875 -4.28125,0.1875 -3.44217,0 -6.79104,-0.34533 -10.0625,-0.9375 z"
         style="fill:#000000;fill-opacity:1;stroke:none"
         inkscape:connector-curvature="0" />
      <path
         id="path3760"
         d="m 329.60294,469.54135 c 0,27.45458 -22.25633,49.71092 -49.71091,49.71092 -27.45458,0 -49.71092,-22.25634 -49.71092,-49.71092 0,-27.45458 22.25634,-49.71091 49.71092,-49.71091 27.45458,0 49.71091,22.25633 49.71091,49.71091 z"
         style="fill:none;stroke:none"
         transform="matrix(0.93342264,0.18314127,-0.18314127,0.93342264,90.969221,-25.415313)"
         inkscape:connector-curvature="0" />
      <g
         id="text3762"
         style="font-size:10px;font-style:normal;font-variant:normal;font-weight:normal;font-stretch:normal;text-align:center;line-height:125%;letter-spacing:0px;word-spacing:0px;writing-mode:lr-tb;text-anchor:middle;fill:#000000;fill-opacity:1;stroke:none;font-family:FreeMono;-inkscape-font-specification:FreeMono"
         transform="matrix(0.99921207,0.03968923,-0.03968923,0.99921207,18.629834,-10.20122)">
        <path
           id="path3768"
           style="line-height:125%;font-family:Anonymous Pro;-inkscape-font-specification:Anonymous Pro"
           d="m 314.71303,478.32979 c -0.44684,-0.15205 -0.8843,-0.24074 -1.31237,-0.26606 l 2.02043,3.83892 c 0.32768,-0.0535 0.60271,-0.16454 0.82509,-0.333 0.22132,-0.16539 0.38127,-0.39292 0.47985,-0.68259 0.18455,-0.54238 0.095,-1.03705 -0.26868,-1.48403 -0.36164,-0.44284 -0.94308,-0.80059 -1.74432,-1.07324 m -1.8994,-0.2234 c -0.64619,0.12052 -1.06471,0.46121 -1.25557,1.02208 -0.18037,0.53004 -0.0908,1.01957 0.26877,1.46858 0.36263,0.45006 0.94456,0.81141 1.7458,1.08406 0.22187,0.0755 0.43615,0.13294 0.64281,0.17232 0.20975,0.0404 0.41392,0.0669 0.61252,0.0795 l -2.01433,-3.82653 m 2.1149,-0.40988 c 0.4037,0.13737 0.77885,0.31317 1.12545,0.52739 0.3466,0.21422 0.63381,0.46153 0.86162,0.74192 0.2278,0.28039 0.37818,0.59633 0.45114,0.94782 0.075,0.35561 0.0417,0.74143 -0.0999,1.15746 -0.14157,0.41602 -0.35,0.74052 -0.62527,0.97351 -0.27325,0.23711 -0.58617,0.39884 -0.93876,0.48517 -0.3526,0.0863 -0.73104,0.10712 -1.13531,0.0624 -0.40428,-0.0447 -0.80827,-0.13578 -1.21197,-0.27315 -0.4037,-0.13738 -0.77937,-0.31164 -1.12702,-0.52277 -0.34765,-0.21115 -0.63384,-0.45639 -0.85856,-0.73573 -0.22473,-0.27935 -0.37458,-0.59682 -0.44957,-0.95243 -0.0729,-0.35149 -0.0376,-0.73833 0.10607,-1.16051 0.14367,-0.42219 0.35212,-0.75185 0.62537,-0.98896 0.27527,-0.23299 0.58767,-0.39317 0.93718,-0.48054 0.34847,-0.0843 0.72432,-0.10254 1.12755,-0.0547 0.40427,0.0447 0.80826,0.13578 1.21196,0.27316"
           inkscape:connector-curvature="0" />
        <path
           id="path3770"
           style="line-height:125%;font-family:Anonymous Pro;-inkscape-font-specification:Anonymous Pro"
           d="m 308.54087,485.2929 1.17278,-2.46469 0.51587,0.24547 -0.44268,0.93032 3.92851,1.86932 c -0.0953,-0.11026 -0.18481,-0.25557 -0.26841,-0.43594 -0.0807,-0.17898 -0.14125,-0.37364 -0.18176,-0.58397 -0.0376,-0.20894 -0.0498,-0.42565 -0.0367,-0.65014 0.0117,-0.22155 0.0651,-0.43226 0.1602,-0.63214 l 0.62609,0.29792 c -0.0853,0.1793 -0.12109,0.39841 -0.10729,0.65732 0.0138,0.2589 0.0661,0.51633 0.15704,0.77228 0.0909,0.25594 0.2193,0.49368 0.38521,0.71322 0.16591,0.21954 0.35762,0.38105 0.57514,0.48456 l -0.28953,0.60846 -5.23802,-2.49243 -0.44058,0.92591 -0.51586,-0.24547"
           inkscape:connector-curvature="0" />
        <path
           id="path3772"
           style="line-height:125%;font-family:Anonymous Pro;-inkscape-font-specification:Anonymous Pro"
           d="m 306.99911,493.97506 c -0.36794,-0.29566 -0.74872,-0.52855 -1.14235,-0.69869 l 0.5863,4.29834 c 0.32625,0.0617 0.62266,0.0514 0.88923,-0.0309 0.26452,-0.0798 0.49262,-0.2389 0.68429,-0.47742 0.35886,-0.44661 0.44381,-0.94209 0.25485,-1.48646 -0.18847,-0.5398 -0.61257,-1.07477 -1.27232,-1.6049 m -1.70859,-0.85929 c -0.64846,-0.10765 -1.15823,0.0694 -1.52933,0.53126 -0.35071,0.43645 -0.43387,0.92711 -0.24948,1.47199 0.18692,0.5469 0.61025,1.08543 1.27,1.61557 0.1827,0.1468 0.36443,0.27403 0.54518,0.3817 0.18329,0.10969 0.3661,0.20439 0.54844,0.28409 l -0.58481,-4.28461 m 2.1276,0.33783 c 0.33241,0.26711 0.62486,0.56056 0.87735,0.88037 0.25248,0.31981 0.43783,0.6504 0.55606,0.99178 0.11822,0.34137 0.15153,0.68968 0.0999,1.04493 -0.0511,0.35982 -0.21429,0.71101 -0.48955,1.05358 -0.27527,0.34256 -0.58207,0.57626 -0.92041,0.7011 -0.33784,0.12941 -0.6872,0.17441 -1.04806,0.13501 -0.36087,-0.0394 -0.72361,-0.14925 -1.08824,-0.32949 -0.36463,-0.18025 -0.71315,-0.40393 -1.04556,-0.67103 -0.33241,-0.26711 -0.62588,-0.5593 -0.8804,-0.87656 -0.25452,-0.31728 -0.43963,-0.64558 -0.55532,-0.98491 -0.11568,-0.33935 -0.14797,-0.68893 -0.0969,-1.04875 0.0516,-0.35524 0.21708,-0.70669 0.49642,-1.05432 0.27934,-0.34764 0.58793,-0.58617 0.92578,-0.71558 0.33834,-0.12484 0.68667,-0.16858 1.045,-0.1312 0.35629,0.0399 0.71572,0.15126 1.07831,0.33404 0.36463,0.18025 0.71315,0.40392 1.04556,0.67103"
           inkscape:connector-curvature="0" />
        <path
           id="path3774"
           style="line-height:125%;font-family:Anonymous Pro;-inkscape-font-specification:Anonymous Pro"
           d="m 301.65442,502.24432 c -0.12342,-0.12517 -0.22269,-0.24901 -0.29779,-0.37152 -0.0774,-0.12025 -0.13745,-0.25993 -0.18007,-0.41905 -0.0449,-0.15684 -0.077,-0.33776 -0.0963,-0.54275 -0.0193,-0.205 -0.0302,-0.45023 -0.0328,-0.73567 l 10e-4,-3.16271 -1.91567,1.88908 0.87769,0.89004 -0.40677,0.40113 -1.27882,-1.29681 2.94825,-2.90734 0.41484,0.42068 0.003,3.53564 c -0.001,0.17953 0.002,0.3545 0.0101,0.52489 0.006,0.17268 0.0218,0.33737 0.0483,0.49408 0.0265,0.15671 0.0704,0.30318 0.13159,0.43942 0.0612,0.13623 0.14551,0.25882 0.25294,0.36776 0.27427,0.27813 0.57384,0.39647 0.89869,0.35501 0.32481,-0.0369 0.62281,-0.18901 0.89399,-0.45642 0.38012,-0.37486 0.56353,-0.76373 0.55024,-1.16664 -0.0133,-0.40292 -0.21652,-0.80371 -0.60965,-1.20237 l 0.44155,-0.43541 c 0.50512,0.51223 0.76379,1.04806 0.77599,1.6075 0.0122,0.55942 -0.24013,1.09399 -0.757,1.60369 -0.19469,0.19199 -0.40637,0.34358 -0.63503,0.45478 -0.22869,0.11579 -0.46166,0.18552 -0.69891,0.20919 -0.23958,0.0259 -0.47418,-10e-4 -0.7038,-0.0809 -0.22734,-0.0776 -0.43929,-0.21599 -0.63586,-0.41532"
           inkscape:connector-curvature="0" />
        <path
           id="path3776"
           style="line-height:125%;font-family:Anonymous Pro;-inkscape-font-specification:Anonymous Pro"
           d="m 294.4349,506.03379 c -0.24609,-0.40277 -0.52552,-0.75085 -0.83828,-1.04422 l -0.9038,4.24295 c 0.28608,0.16853 0.56846,0.25921 0.84715,0.27205 0.27591,0.0145 0.54441,-0.058 0.80553,-0.21751 0.48888,-0.29871 0.73659,-0.73616 0.74312,-1.31235 0.005,-0.57173 -0.21245,-1.2187 -0.65372,-1.94092 m -1.31669,-1.38707 c -0.5737,-0.32086 -1.11333,-0.32685 -1.61888,-0.018 -0.47778,0.29192 -0.72217,0.72543 -0.73318,1.30055 -0.009,0.5779 0.20667,1.22795 0.64794,1.95018 0.12219,0.19999 0.2501,0.38124 0.38372,0.54375 0.13532,0.16527 0.27526,0.31628 0.41984,0.45302 l 0.90056,-4.22953 m 1.88752,1.0383 c 0.22233,0.36389 0.39814,0.73903 0.52742,1.12545 0.12927,0.3864 0.19173,0.76023 0.18738,1.12147 -0.004,0.36124 -0.091,0.70026 -0.25979,1.01705 -0.16993,0.32125 -0.44239,0.59644 -0.81739,0.82557 -0.375,0.22911 -0.74281,0.34512 -1.10344,0.34803 -0.3617,0.007 -0.70566,-0.0686 -1.03186,-0.22786 -0.3262,-0.15928 -0.63033,-0.38546 -0.91238,-0.67851 -0.28206,-0.29307 -0.53425,-0.62155 -0.75658,-0.98543 -0.22233,-0.36389 -0.39952,-0.73819 -0.53158,-1.12289 -0.13205,-0.38472 -0.19506,-0.75631 -0.18901,-1.11477 0.006,-0.35847 0.094,-0.69833 0.26396,-1.01959 0.16885,-0.31679 0.44355,-0.59144 0.8241,-0.82395 0.38056,-0.23251 0.75169,-0.35246 1.11339,-0.35983 0.36063,-0.003 0.7032,0.0739 1.0277,0.2304 0.32172,0.1582 0.62222,0.38468 0.9015,0.67944 0.28206,0.29306 0.53425,0.62153 0.75658,0.98542"
           inkscape:connector-curvature="0" />
        <path
           id="path3778"
           style="line-height:125%;font-family:Anonymous Pro;-inkscape-font-specification:Anonymous Pro"
           d="m 285.20026,509.39253 c -0.11755,-0.25407 -0.17316,-0.50991 -0.16681,-0.7675 0.008,-0.25465 0.0646,-0.49615 0.17051,-0.72451 0.10301,-0.227 0.24911,-0.43448 0.43832,-0.62246 0.18626,-0.1866 0.40346,-0.33732 0.65162,-0.45214 0.28066,-0.12986 0.55989,-0.21242 0.83768,-0.2477 0.27484,-0.0339 0.53949,-0.0201 0.79396,0.0415 0.25151,0.063 0.48682,0.18006 0.70592,0.35127 0.21911,0.17122 0.40745,0.39612 0.56505,0.67471 l -0.55248,0.35247 c -0.24186,-0.4297 -0.5521,-0.69325 -0.93074,-0.79065 -0.37863,-0.0974 -0.7718,-0.0518 -1.17949,0.13684 -0.17431,0.0806 -0.32528,0.18458 -0.45294,0.31179 -0.12628,0.13017 -0.22243,0.27508 -0.28844,0.43475 -0.066,0.15966 -0.0987,0.32543 -0.0981,0.49731 -0.002,0.17325 0.0368,0.34702 0.11747,0.52133 0.10936,0.23634 0.23661,0.4106 0.38177,0.52278 0.14357,0.11649 0.3054,0.18329 0.48547,0.20041 0.18145,0.0201 0.38389,-0.004 0.60731,-0.0712 0.22047,-0.0661 0.46808,-0.16278 0.74283,-0.2899 l 0.2399,0.51848 c -0.2009,0.0929 -0.38688,0.19873 -0.55797,0.31735 -0.17267,0.12293 -0.31509,0.25697 -0.42727,0.40213 -0.11081,0.14811 -0.18193,0.30835 -0.21337,0.48072 -0.0314,0.17236 -6.8e-4,0.35899 0.0923,0.55988 0.15036,0.32497 0.37848,0.53506 0.68436,0.63026 0.30725,0.0981 0.63222,0.0679 0.97492,-0.0906 0.43133,-0.19958 0.72435,-0.47325 0.87908,-0.82101 0.15609,-0.34482 0.12205,-0.75948 -0.10212,-1.24399 l 0.57166,-0.26449 c 0.13942,0.30133 0.21575,0.5942 0.22898,0.87861 0.0132,0.28441 -0.0297,0.54818 -0.12885,0.79132 -0.0978,0.24608 -0.24942,0.46869 -0.45498,0.66783 -0.2042,0.20207 -0.45549,0.37214 -0.75388,0.51021 -0.24816,0.11481 -0.49568,0.1845 -0.74256,0.20907 -0.24847,0.0289 -0.48391,0.0123 -0.70633,-0.0498 -0.22536,-0.0607 -0.42815,-0.16955 -0.60836,-0.32647 -0.1818,-0.15262 -0.33148,-0.35596 -0.44903,-0.61002 -0.15173,-0.32794 -0.1792,-0.647 -0.0824,-0.9572 0.0952,-0.30589 0.31151,-0.57096 0.64891,-0.79521 -0.22047,0.0661 -0.42802,0.0904 -0.62265,0.0729 -0.19326,-0.0146 -0.37303,-0.0659 -0.53931,-0.15397 -0.16491,-0.0851 -0.31155,-0.1966 -0.43991,-0.33448 -0.13131,-0.13652 -0.23797,-0.2934 -0.31999,-0.47066"
           inkscape:connector-curvature="0" />
        <path
           id="path3780"
           style="line-height:125%;font-family:Anonymous Pro;-inkscape-font-specification:Anonymous Pro"
           d="m 278.50875,513.13666 c -0.0945,-0.46244 -0.23904,-0.88476 -0.43347,-1.26697 l -2.29206,3.68319 c 0.21177,0.25573 0.44652,0.43699 0.70425,0.54378 0.25455,0.10743 0.53171,0.13051 0.8315,0.0692 0.5613,-0.11477 0.94295,-0.44199 1.14492,-0.98166 0.19945,-0.53585 0.2144,-1.21836 0.0449,-2.04756 m -0.76688,-1.75201 c -0.4305,-0.49675 -0.93596,-0.68579 -1.51641,-0.56711 -0.54854,0.11215 -0.92572,0.4368 -1.13155,0.97394 -0.20516,0.54033 -0.22298,1.22509 -0.0534,2.0543 0.047,0.22962 0.10565,0.44355 0.17608,0.6418 0.0711,0.20142 0.15138,0.391 0.24088,0.56874 l 2.28445,-3.67167 m 1.42227,1.61801 c 0.0854,0.41779 0.12326,0.83035 0.11351,1.2377 -0.01,0.40734 -0.0781,0.78014 -0.20493,1.11841 -0.12687,0.33825 -0.32353,0.62765 -0.59,0.8682 -0.26899,0.24438 -0.61877,0.41058 -1.04931,0.49862 -0.43055,0.088 -0.81589,0.0721 -1.15604,-0.0477 -0.34268,-0.11601 -0.64034,-0.30434 -0.89299,-0.565 -0.25265,-0.26067 -0.4618,-0.57674 -0.62747,-0.94821 -0.16565,-0.37149 -0.29119,-0.76612 -0.37662,-1.18391 -0.0854,-0.41779 -0.12484,-0.83003 -0.11829,-1.23672 0.007,-0.40669 0.0736,-0.77757 0.20112,-1.11264 0.12753,-0.33507 0.32579,-0.6248 0.59478,-0.86918 0.26647,-0.24055 0.61816,-0.40548 1.05508,-0.49482 0.43693,-0.0893 0.82673,-0.076 1.16941,0.04 0.34015,0.11984 0.63622,0.3085 0.88821,0.56598 0.24881,0.25812 0.45445,0.57325 0.61692,0.94539 0.16566,0.37148 0.2912,0.76611 0.37662,1.1839"
           inkscape:connector-curvature="0" />
        <path
           id="path3782"
           style="line-height:125%;font-family:Anonymous Pro;-inkscape-font-specification:Anonymous Pro"
           d="m 268.47121,511.40427 2.7196,-0.23221 0.0486,0.56922 -1.02654,0.0876 0.10634,1.24547 2.84123,-0.24259 0.0494,0.57894 -2.3235,4.18256 -0.84652,0.0723 -0.33772,-3.95533 -1.02654,0.0877 -0.0494,-0.57895 1.02654,-0.0877 -0.10634,-1.24547 -1.02654,0.0877 -0.0486,-0.56922 m 1.89744,2.24908 0.27042,3.16719 1.86536,-3.34955 -2.13578,0.18236"
           inkscape:connector-curvature="0" />
        <path
           id="path3784"
           style="line-height:125%;font-family:Anonymous Pro;-inkscape-font-specification:Anonymous Pro"
           d="m 261.11259,514.38093 c 0.0688,-0.46697 0.077,-0.91325 0.0245,-1.33885 l -3.41067,2.68081 c 0.11187,0.31261 0.27074,0.56306 0.47661,0.75134 0.20265,0.1878 0.45534,0.304 0.75805,0.34862 0.5668,0.0835 1.03715,-0.094 1.41106,-0.53239 0.37021,-0.43572 0.61701,-1.07223 0.7404,-1.90953 m -0.12347,-1.90851 c -0.2353,-0.61378 -0.646,-0.96386 -1.23212,-1.05023 -0.55391,-0.0816 -1.0192,0.0949 -1.39585,0.5297 -0.37712,0.43798 -0.62738,1.07562 -0.75078,1.91293 -0.0342,0.23187 -0.0519,0.453 -0.0533,0.66338 -0.002,0.21359 0.009,0.41919 0.0325,0.61679 l 3.39959,-2.67257 m 0.78527,2.00603 c -0.0622,0.42187 -0.16729,0.82261 -0.31536,1.20222 -0.14807,0.3796 -0.33941,0.70676 -0.57403,0.98149 -0.23461,0.27471 -0.51818,0.4797 -0.8507,0.61497 -0.33621,0.138 -0.72169,0.17497 -1.15645,0.1109 -0.43476,-0.0641 -0.79158,-0.21043 -1.07048,-0.43907 -0.28258,-0.22591 -0.49818,-0.50446 -0.6468,-0.83565 -0.14861,-0.3312 -0.23744,-0.69965 -0.2665,-1.10535 -0.029,-0.40571 -0.0125,-0.8195 0.0497,-1.24137 0.0622,-0.42188 0.16569,-0.82286 0.31053,-1.20294 0.14486,-0.38007 0.33435,-0.70586 0.56849,-0.97736 0.23414,-0.2715 0.51932,-0.47626 0.85553,-0.61426 0.33252,-0.13526 0.71938,-0.17038 1.16057,-0.10536 0.4412,0.065 0.80309,0.21047 1.08568,0.43638 0.27889,0.22865 0.49288,0.50696 0.64197,0.83493 0.14587,0.3275 0.23172,0.69387 0.25755,1.0991 0.0291,0.4057 0.0125,0.81949 -0.0497,1.24137"
           inkscape:connector-curvature="0" />
        <path
           id="path3786"
           style="line-height:125%;font-family:Anonymous Pro;-inkscape-font-specification:Anonymous Pro"
           d="m 251.68562,511.39948 c 0.0805,-0.30197 0.21249,-0.56998 0.39612,-0.80404 0.18363,-0.23405 0.40092,-0.42376 0.65188,-0.56914 0.24698,-0.14306 0.52395,-0.23434 0.83092,-0.27384 0.30697,-0.0395 0.62403,-0.0157 0.95115,0.0715 0.29568,0.0788 0.55761,0.19572 0.78578,0.35083 0.22818,0.15511 0.41642,0.34001 0.56472,0.55469 0.14515,0.21385 0.24408,0.4558 0.29677,0.72587 0.0527,0.27006 0.0506,0.56257 -0.006,0.87754 l -0.65392,-0.0681 c 0.0381,-0.21892 0.041,-0.43207 0.009,-0.63944 -0.0332,-0.20423 -0.0986,-0.38842 -0.1964,-0.55258 -0.0977,-0.16416 -0.22622,-0.30787 -0.3854,-0.43113 -0.16002,-0.12011 -0.34698,-0.20866 -0.56087,-0.26564 -0.25164,-0.067 -0.48586,-0.0857 -0.70268,-0.0558 -0.22078,0.0321 -0.42007,0.10369 -0.59786,0.21466 -0.17863,0.11411 -0.33009,0.25904 -0.45439,0.43479 -0.12829,0.17805 -0.22218,0.37874 -0.28168,0.60207 -0.062,0.23277 -0.0817,0.45829 -0.059,0.67657 0.0187,0.22058 0.0764,0.42124 0.17314,0.60197 0.0967,0.18072 0.23326,0.33837 0.40963,0.47295 0.1724,0.13688 0.37813,0.23717 0.61718,0.30086 0.25164,0.067 0.50809,0.0781 0.76935,0.0332 0.25728,-0.0426 0.49766,-0.14197 0.72114,-0.29803 l 0.6464,0.17221 -0.81955,3.07629 -3.85481,-1.02695 0.14707,-0.55204 3.20841,0.85475 0.51285,-1.92504 c -0.23733,0.13215 -0.48852,0.21514 -0.75356,0.24897 -0.26901,0.0361 -0.52934,0.0207 -0.78098,-0.0464 -0.3177,-0.0846 -0.59483,-0.21406 -0.8314,-0.38824 -0.2374,-0.17105 -0.4269,-0.3765 -0.5685,-0.61635 -0.14243,-0.2367 -0.23109,-0.50455 -0.26597,-0.80355 -0.0349,-0.29901 -0.007,-0.6168 0.0822,-0.95336"
           inkscape:connector-curvature="0" />
        <path
           id="path3788"
           style="line-height:125%;font-family:Anonymous Pro;-inkscape-font-specification:Anonymous Pro"
           d="m 244.32884,509.65509 c 0.22306,-0.41598 0.38206,-0.83305 0.47702,-1.25123 l -4.11757,1.3657 c -7.4e-4,0.33202 0.0638,0.6215 0.19365,0.86843 0.12699,0.24538 0.32531,0.44037 0.59497,0.58497 0.50491,0.27074 1.00757,0.26325 1.50798,-0.0225 0.49601,-0.28439 0.94399,-0.79953 1.34395,-1.54541 m 0.5309,-1.83733 c -0.0133,-0.65721 -0.28096,-1.12579 -0.80308,-1.40576 -0.49343,-0.26459 -0.99102,-0.25623 -1.49277,0.0251 -0.50328,0.28418 -0.9549,0.79921 -1.35486,1.5451 -0.11076,0.20655 -0.20245,0.40855 -0.27509,0.606 -0.0742,0.20031 -0.13368,0.39741 -0.17855,0.59128 l 4.10435,-1.3617 m 0.0586,2.15345 c -0.20152,0.37581 -0.43628,0.71718 -0.70428,1.0241 -0.268,0.30692 -0.55893,0.54983 -0.87279,0.72874 -0.31386,0.1789 -0.65013,0.27561 -1.00881,0.29013 -0.36308,0.0158 -0.73827,-0.0801 -1.12556,-0.28774 -0.38729,-0.20768 -0.67336,-0.46635 -0.85821,-0.776 -0.18926,-0.30834 -0.29765,-0.64348 -0.32518,-1.00545 -0.0275,-0.36196 0.0138,-0.73871 0.12403,-1.13023 0.11023,-0.39153 0.26609,-0.7752 0.46761,-1.15101 0.20152,-0.37582 0.43485,-0.71795 0.69997,-1.02641 0.26514,-0.30846 0.55386,-0.5507 0.86618,-0.72674 0.31233,-0.17604 0.65003,-0.27198 1.01312,-0.28782 0.35868,-0.0145 0.73453,0.0836 1.12756,0.29435 0.39302,0.21075 0.68416,0.47029 0.87342,0.77862 0.18485,0.30966 0.29181,0.64404 0.32088,1.00313 0.0262,0.35756 -0.0173,0.73133 -0.13034,1.12132 -0.11021,0.39153 -0.26608,0.7752 -0.4676,1.15101"
           inkscape:connector-curvature="0" />
        <path
           id="path3790"
           style="line-height:125%;font-family:Anonymous Pro;-inkscape-font-specification:Anonymous Pro"
           d="m 236.37655,503.60995 c 0.20102,-0.28842 0.42963,-0.51397 0.68583,-0.67664 0.25355,-0.16452 0.52254,-0.26868 0.80699,-0.31247 0.27993,-0.043 0.56677,-0.0276 0.86053,0.0462 0.29377,0.0738 0.57552,0.2047 0.84525,0.39268 0.37121,0.25872 0.63022,0.55033 0.77703,0.87484 0.14494,0.32718 0.20831,0.66893 0.19011,1.02525 -0.0209,0.35446 -0.11012,0.71879 -0.26776,1.093 -0.16031,0.37234 -0.36237,0.73344 -0.6062,1.08329 -0.24755,0.35519 -0.53026,0.66405 -0.84813,0.92658 -0.32054,0.26067 -0.66043,0.45231 -1.01966,0.57492 -0.36109,0.12528 -0.73035,0.1655 -1.1078,0.12068 -0.3801,-0.0467 -0.75577,-0.19939 -1.12699,-0.4581 -0.51809,-0.36109 -0.82375,-0.84194 -0.917,-1.44257 l 0.58388,-0.0692 c 0.058,0.42923 0.27788,0.77693 0.65977,1.04309 0.28042,0.19543 0.56601,0.31511 0.85678,0.35905 0.2881,0.0421 0.57126,0.0172 0.84948,-0.0745 0.27369,-0.091 0.54058,-0.24619 0.80067,-0.46566 0.25557,-0.21867 0.49502,-0.48824 0.71837,-0.80871 -0.13231,0.11014 -0.29242,0.18901 -0.48033,0.2366 -0.18791,0.0476 -0.37974,0.0666 -0.57551,0.0572 -0.19762,-0.007 -0.39289,-0.0397 -0.58583,-0.0988 -0.19745,-0.0583 -0.3763,-0.14323 -0.53654,-0.25491 -0.2724,-0.18985 -0.49086,-0.41154 -0.6554,-0.66508 -0.16638,-0.25087 -0.27333,-0.51586 -0.32084,-0.79497 -0.052,-0.2783 -0.0434,-0.56393 0.0258,-0.85689 0.0666,-0.29481 0.19575,-0.57976 0.38746,-0.85483 m 0.5488,0.38249 c -0.13772,0.19762 -0.23544,0.4033 -0.29314,0.61703 -0.0622,0.21453 -0.081,0.42365 -0.0563,0.62734 0.0247,0.20369 0.0947,0.39928 0.21001,0.58679 0.11266,0.18564 0.2718,0.35012 0.47744,0.49344 0.20297,0.14145 0.41317,0.23836 0.63062,0.29071 0.21478,0.0505 0.42414,0.0575 0.62807,0.0211 0.20394,-0.0364 0.39698,-0.11415 0.57914,-0.2332 0.17764,-0.11823 0.33625,-0.2775 0.47584,-0.47779 0.13774,-0.19763 0.24132,-0.40318 0.31075,-0.61667 0.0676,-0.21081 0.0918,-0.42207 0.0727,-0.63377 -0.0191,-0.21171 -0.0845,-0.41398 -0.19606,-0.60682 -0.11427,-0.19471 -0.28624,-0.3721 -0.51591,-0.53217 -0.19763,-0.13773 -0.40023,-0.23132 -0.60781,-0.28076 -0.2121,-0.0486 -0.42012,-0.0547 -0.62406,-0.0183 -0.20393,0.0364 -0.39936,0.12043 -0.5863,0.25202 -0.18961,0.12973 -0.35793,0.30008 -0.50498,0.51106"
           inkscape:connector-curvature="0" />
        <path
           id="path3792"
           style="line-height:125%;font-family:Anonymous Pro;-inkscape-font-specification:Anonymous Pro"
           d="m 230.15783,499.48817 c 0.35153,-0.31499 0.64323,-0.65285 0.87508,-1.01359 l -4.33647,-0.12017 c -0.11392,0.31188 -0.15194,0.60602 -0.11408,0.88242 0.0357,0.27397 0.15565,0.5249 0.35984,0.75279 0.38234,0.42668 0.85743,0.59104 1.42527,0.49308 0.56325,-0.0982 1.16004,-0.42973 1.79036,-0.99453 m 1.12558,-1.54619 c 0.21163,-0.62234 0.11976,-1.15413 -0.27561,-1.59535 -0.37364,-0.41699 -0.84426,-0.5788 -1.41185,-0.48543 -0.57002,0.0955 -1.17019,0.42571 -1.80052,0.99051 -0.17455,0.15641 -0.32963,0.31504 -0.46524,0.47589 -0.13802,0.16302 -0.26118,0.32801 -0.36946,0.49496 l 4.32268,0.11942 m -0.67916,2.04439 c -0.31759,0.28457 -0.65468,0.52543 -1.01127,0.72258 -0.35659,0.19714 -0.71292,0.32629 -1.06897,0.38746 -0.35605,0.0612 -0.70515,0.0374 -1.04729,-0.0712 -0.34672,-0.10892 -0.66672,-0.32701 -0.95999,-0.6543 -0.29326,-0.32728 -0.47398,-0.66799 -0.54217,-1.02212 -0.0728,-0.35439 -0.0604,-0.70641 0.0371,-1.05607 0.0976,-0.34966 0.26488,-0.68973 0.50199,-1.02021 0.23712,-0.33048 0.51447,-0.63801 0.83206,-0.92258 0.31759,-0.28458 0.65359,-0.52665 1.00801,-0.72622 0.35442,-0.19956 0.70845,-0.32884 1.06207,-0.38783 0.35364,-0.059 0.70382,-0.034 1.05054,0.0749 0.34214,0.10866 0.66201,0.32906 0.95962,0.66119 0.29761,0.33213 0.4828,0.67539 0.55558,1.02978 0.0682,0.35413 0.0547,0.70494 -0.0404,1.05243 -0.0973,0.34506 -0.26559,0.68162 -0.50488,1.00968 -0.23711,0.33048 -0.51446,0.638 -0.83205,0.92258"
           inkscape:connector-curvature="0" />
        <path
           id="path3794"
           style="line-height:125%;font-family:Anonymous Pro;-inkscape-font-specification:Anonymous Pro"
           d="m 221.89697,493.33803 c 0.58468,0.0769 1.11798,0.0924 1.59991,0.0466 0.48194,-0.0458 0.94787,-0.14807 1.39778,-0.3068 0.44727,-0.15684 0.89667,-0.36703 1.34821,-0.63056 0.44889,-0.26166 0.93168,-0.57121 1.44837,-0.92867 l 0.40601,0.57406 c -0.48746,0.33678 -0.96111,0.63389 -1.42095,0.89133 -0.46172,0.25479 -0.92795,0.46092 -1.39868,0.61841 -0.47338,0.15937 -0.95823,0.26306 -1.45456,0.31107 -0.49632,0.048 -1.01961,0.0353 -1.56987,-0.038 l 1.75371,2.47962 1.02056,-0.72178 0.32987,0.46642 -1.48697,1.05167 -2.45576,-3.47227 0.48237,-0.34116"
           inkscape:connector-curvature="0" />
        <path
           id="path3796"
           style="line-height:125%;font-family:Anonymous Pro;-inkscape-font-specification:Anonymous Pro"
           d="m 220.28577,485.11848 c 0.4374,-0.17741 0.82624,-0.3966 1.16651,-0.65756 l -4.03984,-1.58088 c -0.21275,0.25491 -0.34809,0.51882 -0.40602,0.79172 -0.0591,0.26989 -0.0312,0.54661 0.0838,0.83016 0.21534,0.5309 0.60676,0.84637 1.17424,0.94639 0.56325,0.0982 1.23702,-0.0117 2.02131,-0.32983 m 1.5825,-1.07394 c 0.40978,-0.51398 0.50333,-1.04547 0.28064,-1.59448 -0.21044,-0.51883 -0.59851,-0.83039 -1.16421,-0.93465 -0.56871,-0.10304 -1.24521,0.005 -2.02951,0.32261 -0.21718,0.0881 -0.4168,0.18487 -0.59885,0.29033 -0.18506,0.10668 -0.35679,0.22024 -0.51519,0.34069 l 4.02712,1.5755 m -1.33106,1.69384 c -0.39516,0.16028 -0.79388,0.27282 -1.19616,0.33763 -0.40227,0.0648 -0.78127,0.0657 -1.13702,0.003 -0.35573,-0.063 -0.67618,-0.20347 -0.96135,-0.42152 -0.28939,-0.21985 -0.51668,-0.53338 -0.68186,-0.94061 -0.16517,-0.40723 -0.21991,-0.789 -0.16421,-1.14531 0.0515,-0.3581 0.18228,-0.68516 0.39241,-0.98116 0.21015,-0.296 0.48271,-0.55936 0.81769,-0.79008 0.33498,-0.23071 0.70005,-0.42621 1.09521,-0.5865 0.39517,-0.16027 0.79327,-0.27433 1.19432,-0.34215 0.40105,-0.0678 0.77794,-0.0696 1.13066,-0.005 0.35273,0.0642 0.67379,0.2062 0.96319,0.42605 0.28516,0.21805 0.51155,0.53371 0.67917,0.94697 0.16763,0.41326 0.2257,0.79894 0.17424,1.15704 -0.0557,0.35632 -0.18712,0.68186 -0.39425,0.97664 -0.20835,0.29176 -0.48062,0.55149 -0.81683,0.77919 -0.33497,0.23072 -0.70005,0.42621 -1.09521,0.5865"
           inkscape:connector-curvature="0" />
        <path
           id="path3798"
           style="line-height:125%;font-family:Anonymous Pro;-inkscape-font-specification:Anonymous Pro"
           d="m 218.4123,475.36452 c 0.32318,-0.0893 0.61533,-0.10752 0.87645,-0.0547 0.25799,0.0537 0.49046,0.16169 0.69741,0.32403 0.20608,0.15921 0.38292,0.36533 0.5305,0.61837 0.14758,0.25304 0.26384,0.53331 0.34879,0.8408 0.0867,0.31377 0.13121,0.61554 0.13359,0.90531 0.002,0.28978 -0.0436,0.55745 -0.13782,0.803 -0.0951,0.24242 -0.23962,0.45288 -0.43346,0.63139 -0.19698,0.17937 -0.45706,0.3137 -0.78024,0.40298 -0.16629,0.0459 -0.34239,0.0625 -0.5283,0.0497 -0.18677,-0.0159 -0.36792,-0.0605 -0.54346,-0.13354 -0.17954,-0.0754 -0.33892,-0.18161 -0.47812,-0.31876 -0.14321,-0.13942 -0.25467,-0.30451 -0.33439,-0.49525 0.0289,0.17778 0.0148,0.34713 -0.042,0.50805 -0.0568,0.16093 -0.13503,0.30579 -0.23454,0.43459 -0.10036,0.12567 -0.21691,0.23554 -0.34965,0.32962 -0.1336,0.091 -0.26786,0.15505 -0.40278,0.19233 -0.27611,0.0763 -0.53288,0.0881 -0.77031,0.0355 -0.24056,-0.0518 -0.45544,-0.15111 -0.64465,-0.29809 -0.18919,-0.14698 -0.35211,-0.33331 -0.48876,-0.55897 -0.13977,-0.22481 -0.24607,-0.46899 -0.31889,-0.73255 -0.0728,-0.26357 -0.10694,-0.52769 -0.10239,-0.79236 0.001,-0.26381 0.0456,-0.50735 0.1325,-0.73061 0.0869,-0.22326 0.22032,-0.41884 0.4002,-0.58674 0.17675,-0.16703 0.40318,-0.28868 0.67929,-0.36496 0.13493,-0.0373 0.28349,-0.0496 0.44569,-0.037 0.16135,0.009 0.31777,0.0439 0.46928,0.10338 0.15065,0.0563 0.29211,0.14051 0.42437,0.25256 0.13228,0.11206 0.2321,0.25334 0.29946,0.42384 -0.0304,-0.20774 -0.0195,-0.40663 0.0327,-0.59666 0.0491,-0.18916 0.13128,-0.36216 0.24668,-0.519 0.11226,-0.15596 0.24444,-0.28873 0.39654,-0.39829 0.15123,-0.1127 0.30999,-0.19202 0.47629,-0.23796 m -2.6129,1.65394 c -0.34514,0.0953 -0.58274,0.2927 -0.71281,0.59205 -0.13319,0.30021 -0.14128,0.66211 -0.0243,1.0857 0.11703,0.42358 0.30975,0.73001 0.57817,0.91927 0.26529,0.19013 0.5705,0.23752 0.91564,0.14217 0.32319,-0.0893 0.54841,-0.27646 0.67565,-0.56152 0.12726,-0.28507 0.12891,-0.65194 0.005,-1.10063 -0.12395,-0.44869 -0.3137,-0.76269 -0.56925,-0.942 -0.25554,-0.17931 -0.5449,-0.22432 -0.86808,-0.13504 m 2.79103,-1.00915 c -0.22277,0.0615 -0.40047,0.15792 -0.53308,0.28911 -0.13661,0.12893 -0.23275,0.28213 -0.28842,0.45961 -0.0597,0.17521 -0.0855,0.36301 -0.0774,0.5634 0.005,0.20127 0.0369,0.40858 0.0958,0.62194 0.059,0.21336 0.13796,0.40767 0.23703,0.58293 0.0959,0.17613 0.21491,0.32562 0.35692,0.44849 0.13802,0.1206 0.29917,0.20273 0.48346,0.24637 0.18029,0.0414 0.38182,0.0313 0.60459,-0.0303 0.21964,-0.0607 0.39777,-0.15548 0.53438,-0.28441 0.13575,-0.13206 0.2366,-0.28656 0.30254,-0.4635 0.0651,-0.18008 0.0983,-0.37162 0.0996,-0.57462 -0.002,-0.20213 -0.0322,-0.40987 -0.0911,-0.62324 -0.0589,-0.21336 -0.13952,-0.40723 -0.24174,-0.58163 -0.10535,-0.17352 -0.23173,-0.31928 -0.37915,-0.43728 -0.14829,-0.12113 -0.31415,-0.20196 -0.49758,-0.24247 -0.18429,-0.0436 -0.38625,-0.0351 -0.60589,0.0256"
           inkscape:connector-curvature="0" />
        <path
           id="path3800"
           style="line-height:125%;font-family:Anonymous Pro;-inkscape-font-specification:Anonymous Pro"
           d="m 215.87621,468.24195 c 0.47169,-0.0173 0.91201,-0.0905 1.32096,-0.21951 l -3.25677,-2.86583 c -0.28704,0.1669 -0.50439,0.3687 -0.65206,0.60539 -0.14777,0.23345 -0.21605,0.50306 -0.20483,0.80885 0.021,0.57253 0.28113,1.00273 0.78031,1.29059 0.49581,0.28473 1.16661,0.41157 2.01239,0.38051 m 1.85416,-0.46874 c 0.56071,-0.34307 0.83019,-0.81063 0.80845,-1.40268 -0.0205,-0.55952 -0.27884,-0.9849 -0.77489,-1.27614 -0.4993,-0.29111 -1.17184,-0.42114 -2.01763,-0.39009 -0.23421,0.009 -0.45488,0.0314 -0.662,0.0683 -0.21036,0.0371 -0.41056,0.0851 -0.60058,0.14421 l 3.24665,2.85642 m -1.82962,1.13724 c -0.42614,0.0156 -0.83932,-0.0148 -1.23953,-0.0913 -0.40021,-0.0765 -0.75673,-0.20511 -1.06957,-0.38581 -0.31282,-0.1807 -0.566,-0.42223 -0.75952,-0.72457 -0.19688,-0.30548 -0.30339,-0.6778 -0.31952,-1.11696 -0.0161,-0.43916 0.0628,-0.81666 0.23692,-1.1325 0.17071,-0.31898 0.40537,-0.58167 0.70398,-0.78809 0.29862,-0.2064 0.64475,-0.36081 1.03839,-0.46322 0.39364,-0.1024 0.80354,-0.16142 1.22968,-0.17707 0.42615,-0.0156 0.83927,0.0132 1.23936,0.0864 0.40009,0.0733 0.75493,0.2003 1.0645,0.38112 0.30958,0.18082 0.56281,0.42397 0.7597,0.72945 0.19352,0.30235 0.29846,0.67635 0.31483,1.12201 0.0164,0.44567 -0.0608,0.82799 -0.23151,1.14697 -0.17407,0.31584 -0.40879,0.57691 -0.70416,0.7832 -0.29548,0.20304 -0.6401,0.35413 -1.03386,0.45328 -0.39364,0.1024 -0.80354,0.16143 -1.22969,0.17708"
           inkscape:connector-curvature="0" />
        <path
           id="path3802"
           style="line-height:125%;font-family:Anonymous Pro;-inkscape-font-specification:Anonymous Pro"
           d="m 214.67666,462.94094 c -0.3537,-0.0281 -0.66545,-0.11164 -0.93524,-0.25062 -0.26979,-0.13899 -0.49391,-0.31843 -0.67238,-0.53833 -0.18144,-0.22341 -0.31287,-0.48039 -0.39429,-0.77095 -0.0846,-0.29082 -0.11397,-0.6001 -0.0879,-0.92785 0.0353,-0.44456 0.1577,-0.81363 0.36715,-1.10721 0.20621,-0.29384 0.46917,-0.52113 0.78889,-0.68186 0.31998,-0.16398 0.67952,-0.27094 1.0786,-0.32088 0.39935,-0.0532 0.81157,-0.0629 1.23666,-0.0291 0.43158,0.0343 0.84081,0.12394 1.22767,0.26896 0.38687,0.14502 0.72392,0.3416 1.01117,0.58973 0.2875,0.24489 0.50858,0.54491 0.66323,0.90007 0.15167,0.35166 0.20984,0.74977 0.17453,1.19433 -0.05,0.62953 -0.31229,1.13606 -0.78686,1.51961 l -0.3546,-0.469 c 0.17385,-0.13314 0.30894,-0.29221 0.40527,-0.47722 0.0933,-0.18852 0.14891,-0.39472 0.1667,-0.61863 0.0271,-0.34072 -0.0141,-0.64442 -0.12356,-0.91108 -0.10918,-0.26991 -0.27201,-0.50163 -0.48848,-0.69516 -0.21946,-0.19703 -0.48809,-0.35062 -0.80589,-0.46077 -0.32078,-0.11364 -0.6775,-0.18606 -1.07014,-0.21726 0.16137,0.0651 0.31017,0.16506 0.4464,0.29997 0.13623,0.13491 0.25131,0.28936 0.34525,0.46336 0.0939,0.174 0.1655,0.36255 0.21467,0.56565 0.0462,0.1996 0.0618,0.3935 0.0469,0.58171 -0.0263,0.33099 -0.10731,0.63151 -0.24305,0.90155 -0.13574,0.27005 -0.31057,0.49781 -0.5245,0.68327 -0.21691,0.18197 -0.46941,0.31865 -0.75751,0.41006 -0.28808,0.0914 -0.59762,0.12396 -0.92861,0.0977 m 0.0533,-0.67171 c 0.24014,0.0191 0.4685,0.001 0.68509,-0.0533 0.21361,-0.0581 0.40208,-0.1493 0.56542,-0.27347 0.16334,-0.12418 0.29668,-0.28176 0.40002,-0.47274 0.10035,-0.19449 0.16045,-0.41666 0.1803,-0.66653 0.0196,-0.24662 -0.001,-0.47523 -0.0631,-0.68586 -0.0646,-0.21412 -0.16253,-0.39986 -0.29371,-0.55723 -0.13118,-0.15736 -0.29427,-0.28298 -0.48928,-0.37684 -0.19798,-0.0974 -0.42029,-0.15584 -0.66691,-0.17543 -0.24013,-0.0191 -0.46836,-0.003 -0.6847,0.0485 -0.21932,0.0479 -0.41552,0.13354 -0.5886,0.25694 -0.17281,0.12016 -0.31277,0.27884 -0.41987,0.47606 -0.11008,0.19371 -0.17621,0.4301 -0.19838,0.70917 -0.0191,0.24013 0.004,0.46401 0.0691,0.67164 0.0622,0.20414 0.16045,0.38501 0.29487,0.54263 0.13443,0.15763 0.30551,0.28551 0.51323,0.38365 0.20474,0.0946 0.43691,0.15226 0.6965,0.17288"
           inkscape:connector-curvature="0" />
        <path
           id="path3804"
           style="line-height:125%;font-family:Anonymous Pro;-inkscape-font-specification:Anonymous Pro"
           d="m 221.4634,448.86524 -0.82802,2.60087 -0.54437,-0.17331 0.31255,-0.98172 -4.14557,-1.3198 c 0.1094,0.0963 0.21774,0.22817 0.32501,0.39555 0.10417,0.1664 0.19057,0.35105 0.2592,0.55396 0.0655,0.20192 0.10702,0.41498 0.12447,0.63917 0.0184,0.22109 -0.006,0.43709 -0.0731,0.64801 l -0.66068,-0.21033 c 0.0602,-0.18921 0.066,-0.41114 0.0172,-0.6658 -0.0487,-0.25465 -0.13548,-0.50261 -0.26023,-0.74388 -0.12474,-0.24127 -0.28417,-0.45942 -0.4783,-0.65445 -0.19412,-0.19503 -0.40595,-0.32909 -0.63549,-0.40217 l 0.20442,-0.64207 5.52742,1.75973 0.31106,-0.97707 0.54437,0.17331"
           inkscape:connector-curvature="0" />
        <path
           id="path3806"
           style="line-height:125%;font-family:Anonymous Pro;-inkscape-font-specification:Anonymous Pro"
           d="m 219.33246,445.3433 c 0.43018,0.19427 0.8571,0.32457 1.28076,0.39088 l -1.64238,-4.01523 c -0.33131,0.0218 -0.61573,0.10591 -0.85326,0.25223 -0.23618,0.14336 -0.41725,0.35448 -0.54319,0.63334 -0.2358,0.52215 -0.19417,1.02314 0.1249,1.50297 0.31744,0.47553 0.86183,0.88747 1.63317,1.23581 m 1.86917,0.40481 c 0.65478,-0.0579 1.10409,-0.35683 1.34793,-0.89677 0.23044,-0.51027 0.18828,-1.00614 -0.12648,-1.48761 -0.31772,-0.4828 -0.86226,-0.89837 -1.6336,-1.24672 -0.2136,-0.0965 -0.42137,-0.17422 -0.6233,-0.23327 -0.20489,-0.0604 -0.40557,-0.10636 -0.60205,-0.13795 l 1.6375,4.00232 m -2.14449,0.20485 c -0.38864,-0.17551 -0.74517,-0.38652 -1.0696,-0.63305 -0.32442,-0.24652 -0.58654,-0.52027 -0.78637,-0.82124 -0.19982,-0.30098 -0.31916,-0.6299 -0.35802,-0.98676 -0.0405,-0.36117 0.0297,-0.74201 0.21058,-1.14252 0.18088,-0.4005 0.4195,-0.70349 0.71588,-0.90896 0.29476,-0.20977 0.62177,-0.34069 0.98102,-0.39276 0.35926,-0.0521 0.73795,-0.0364 1.13606,0.0469 0.39811,0.0834 0.79149,0.21279 1.18012,0.3883 0.38864,0.17552 0.74584,0.38505 1.07161,0.6286 0.32576,0.24356 0.58707,0.51515 0.78393,0.81479 0.19685,0.29964 0.31552,0.63004 0.35601,0.99121 0.0388,0.35687 -0.0335,0.73852 -0.21704,1.14495 -0.18355,0.40644 -0.42271,0.71455 -0.71746,0.92433 -0.29638,0.20547 -0.62272,0.3349 -0.97901,0.3883 -0.35495,0.0504 -0.73081,0.0325 -1.12759,-0.0538 -0.39811,-0.0833 -0.79148,-0.21278 -1.18012,-0.3883"
           inkscape:connector-curvature="0" />
        <path
           id="path3808"
           style="line-height:125%;font-family:Anonymous Pro;-inkscape-font-specification:Anonymous Pro"
           d="m 229.31458,434.5509 -1.66708,2.16125 -0.45235,-0.34893 0.62925,-0.81578 -3.44484,-2.65718 c 0.0699,0.12791 0.12664,0.28885 0.17024,0.48281 0.041,0.19198 0.0591,0.39505 0.0543,0.60919 -0.007,0.21216 -0.0413,0.42657 -0.10148,0.64322 -0.0582,0.21408 -0.15496,0.40875 -0.29016,0.58402 l -0.54901,-0.42348 c 0.12128,-0.15723 0.20254,-0.36383 0.24376,-0.61981 0.0412,-0.25597 0.0445,-0.51865 0.01,-0.78803 -0.0348,-0.26937 -0.11004,-0.52887 -0.22582,-0.77851 -0.11577,-0.24963 -0.26902,-0.44801 -0.45976,-0.59514 l 0.41155,-0.53355 4.59312,3.54292 0.62628,-0.81192 0.45235,0.34892"
           inkscape:connector-curvature="0" />
        <path
           id="path3810"
           style="line-height:125%;font-family:Anonymous Pro;-inkscape-font-specification:Anonymous Pro"
           d="m 232.9769,430.49229 -1.90561,1.95417 -0.40901,-0.39885 0.71929,-0.73762 -3.11478,-3.03739 c 0.0546,0.13513 0.0924,0.30155 0.11332,0.49925 0.0186,0.19544 0.0131,0.39923 -0.0165,0.61138 -0.0319,0.20988 -0.0903,0.41894 -0.17512,0.62719 -0.0826,0.20591 -0.20114,0.38811 -0.35568,0.54658 l -0.49641,-0.48407 c 0.13864,-0.14216 0.24322,-0.33799 0.31374,-0.5875 0.0705,-0.24949 0.10408,-0.51003 0.10066,-0.78163 -0.003,-0.27158 -0.0482,-0.53804 -0.13437,-0.79939 -0.0861,-0.26133 -0.21546,-0.47609 -0.38792,-0.64427 l 0.47043,-0.48243 4.15305,4.04985 0.71588,-0.73412 0.40901,0.39885"
           inkscape:connector-curvature="0" />
        <path
           id="path3812"
           style="line-height:125%;font-family:Anonymous Pro;-inkscape-font-specification:Anonymous Pro"
           d="m 241.57492,423.76768 -2.30129,1.46771 -0.3072,-0.48166 0.86865,-0.55401 -2.33942,-3.66807 c 0.0224,0.14404 0.0212,0.31469 -0.004,0.51194 -0.0265,0.19452 -0.0784,0.39168 -0.15556,0.59149 -0.0789,0.19706 -0.18349,0.38729 -0.31363,0.57067 -0.12739,0.18164 -0.28441,0.33197 -0.47104,0.45099 l -0.37283,-0.58459 c 0.16742,-0.10677 0.31393,-0.27356 0.43953,-0.50039 0.1256,-0.22682 0.21773,-0.47283 0.27638,-0.73803 0.0587,-0.2652 0.0759,-0.53485 0.0516,-0.80896 -0.0242,-0.2741 -0.10113,-0.5127 -0.23066,-0.7158 l 0.56812,-0.36234 3.11922,4.89076 0.86453,-0.55138 0.3072,0.48167"
           inkscape:connector-curvature="0" />
        <path
           id="path3814"
           style="line-height:125%;font-family:Anonymous Pro;-inkscape-font-specification:Anonymous Pro"
           d="m 244.93499,416.64825 c 0.0769,0.15807 0.13136,0.30715 0.16334,0.44725 0.0349,0.13869 0.0471,0.29023 0.0366,0.45462 -0.008,0.16298 -0.035,0.34467 -0.0823,0.54506 -0.0473,0.20041 -0.11535,0.43625 -0.20416,0.70754 l -1.01276,2.99617 2.4192,-1.17723 -0.54695,-1.12399 0.51369,-0.24997 0.79693,1.63768 -3.7232,1.81178 -0.25852,-0.53126 1.12795,-3.35089 c 0.0586,-0.1697 0.11136,-0.33655 0.15826,-0.50057 0.0498,-0.16542 0.0872,-0.32662 0.11221,-0.48359 0.025,-0.15696 0.0303,-0.30977 0.0159,-0.45842 -0.0144,-0.14865 -0.0551,-0.29176 -0.12204,-0.42934 -0.17092,-0.35124 -0.41691,-0.55916 -0.73796,-0.62377 -0.31954,-0.069 -0.65055,-0.0201 -0.99301,0.14655 -0.48004,0.2336 -0.77818,0.5434 -0.89444,0.9294 -0.11625,0.38601 -0.0519,0.83074 0.1931,1.33419 l -0.5576,0.27134 c -0.31478,-0.64688 -0.3885,-1.23729 -0.22116,-1.77125 0.16735,-0.53395 0.57739,-0.95974 1.23012,-1.27738 0.24587,-0.11964 0.49491,-0.19558 0.74712,-0.22781 0.25372,-0.0366 0.49675,-0.0281 0.72912,0.0253 0.23528,0.052 0.44894,0.15261 0.64097,0.30171 0.19059,0.14619 0.34714,0.34514 0.46964,0.59686"
           inkscape:connector-curvature="0" />
        <path
           id="path3816"
           style="line-height:125%;font-family:Anonymous Pro;-inkscape-font-specification:Anonymous Pro"
           d="m 256.74381,417.77978 -2.66275,0.59992 -0.12556,-0.55732 1.00508,-0.22644 -0.95622,-4.2442 c -0.0278,0.14308 -0.0868,0.3032 -0.17707,0.48035 -0.0909,0.17398 -0.20661,0.34186 -0.34701,0.50362 -0.14112,0.1586 -0.304,0.30207 -0.48864,0.43042 -0.18146,0.12765 -0.38016,0.21579 -0.5961,0.26444 l -0.1524,-0.6764 c 0.19372,-0.0436 0.38812,-0.15084 0.58323,-0.3216 0.1951,-0.17075 0.36523,-0.37092 0.51038,-0.60049 0.14515,-0.22957 0.25282,-0.4774 0.32301,-0.74348 0.0702,-0.26606 0.0788,-0.5166 0.0259,-0.7516 l 0.65735,-0.1481 1.27496,5.65894 1.00032,-0.22538 0.12556,0.55732"
           inkscape:connector-curvature="0" />
        <path
           id="path3818"
           style="line-height:125%;font-family:Anonymous Pro;-inkscape-font-specification:Anonymous Pro"
           d="m 262.81908,415.15664 c 0.0294,0.2784 -4.6e-4,0.5385 -0.0895,0.7803 -0.0894,0.23857 -0.22104,0.44886 -0.39496,0.63087 -0.17068,0.18168 -0.37587,0.33099 -0.61557,0.44793 -0.23647,0.11661 -0.49066,0.18926 -0.76259,0.21795 -0.30754,0.0324 -0.59847,0.0206 -0.87281,-0.0356 -0.2711,-0.0565 -0.51716,-0.15491 -0.73818,-0.29525 -0.21779,-0.14069 -0.40279,-0.32738 -0.55501,-0.56009 -0.15221,-0.2327 -0.25801,-0.50632 -0.31738,-0.82083 l 0.6366,-0.15556 c 0.0904,0.48473 0.29916,0.83422 0.62619,1.04848 0.32702,0.21426 0.7139,0.29782 1.16064,0.25068 0.19099,-0.0202 0.36742,-0.0699 0.52926,-0.14914 0.1615,-0.0825 0.29923,-0.18869 0.41319,-0.31856 0.11395,-0.12986 0.19834,-0.27624 0.25317,-0.43915 0.058,-0.16324 0.077,-0.34036 0.0568,-0.53136 -0.0273,-0.25897 -0.0916,-0.46495 -0.19286,-0.61794 -0.0984,-0.15655 -0.23001,-0.27195 -0.39496,-0.3462 -0.1653,-0.0775 -0.36457,-0.12028 -0.59783,-0.12841 -0.23002,-0.008 -0.49557,0.003 -0.79663,0.035 l -0.06,-0.56814 c 0.22013,-0.0232 0.43029,-0.0634 0.63048,-0.12054 0.20308,-0.0607 0.38112,-0.14168 0.5341,-0.24293 0.15263,-0.10448 0.27161,-0.23324 0.35694,-0.38627 0.0853,-0.15303 0.11637,-0.33961 0.0931,-0.55974 -0.0376,-0.35609 -0.1858,-0.6285 -0.44466,-0.81723 -0.25921,-0.19195 -0.57657,-0.26811 -0.95208,-0.22849 -0.47264,0.0499 -0.83825,0.21448 -1.09682,0.4938 -0.25891,0.2761 -0.36036,0.67959 -0.30434,1.2105 l -0.6264,0.0661 c -0.0348,-0.3302 -0.0127,-0.63204 0.0665,-0.90553 0.0792,-0.27349 0.20484,-0.50933 0.37705,-0.70754 0.17187,-0.20144 0.38719,-0.36327 0.64598,-0.48551 0.25844,-0.12546 0.55114,-0.20545 0.8781,-0.23996 0.27193,-0.0287 0.5287,-0.0149 0.77033,0.0415 0.24451,0.0528 0.46203,0.14438 0.65256,0.27484 0.19376,0.13013 0.35064,0.29851 0.47065,0.50515 0.12289,0.20308 0.19903,0.44381 0.22841,0.72221 0.0379,0.35934 -0.0389,0.67022 -0.23054,0.93266 -0.18873,0.25887 -0.47893,0.44006 -0.87062,0.54358 0.23002,0.008 0.43433,0.0524 0.61291,0.13173 0.17824,0.0761 0.33187,0.18265 0.46089,0.3196 0.12867,0.13373 0.23154,0.28654 0.3086,0.45843 0.0803,0.17156 0.13069,0.35446 0.15119,0.54869"
           inkscape:connector-curvature="0" />
        <path
           id="path3820"
           style="line-height:125%;font-family:Anonymous Pro;-inkscape-font-specification:Anonymous Pro"
           d="m 273.06379,417.32505 -2.70761,-0.34495 0.0722,-0.56671 1.02201,0.13021 0.54982,-4.31571 c -0.075,0.12499 -0.18513,0.25535 -0.33039,0.39107 -0.14487,0.1325 -0.31089,0.25081 -0.49807,0.35494 -0.18678,0.10091 -0.38885,0.18017 -0.6062,0.2378 -0.21414,0.058 -0.43099,0.0731 -0.65057,0.0451 l 0.0876,-0.6878 c 0.19697,0.0251 0.41629,-0.009 0.65796,-0.10323 0.24167,-0.0939 0.4699,-0.22398 0.68469,-0.39023 0.21479,-0.16624 0.40058,-0.36243 0.55737,-0.58858 0.15679,-0.22613 0.2504,-0.45868 0.28085,-0.69764 l 0.66842,0.0852 -0.73308,5.75427 1.01717,0.12959 -0.0722,0.56671"
           inkscape:connector-curvature="0" />
        <path
           id="path3822"
           style="line-height:125%;font-family:Anonymous Pro;-inkscape-font-specification:Anonymous Pro"
           d="m 279.30584,418.64298 -2.65076,-0.65084 0.13622,-0.55481 1.00055,0.24567 0.29806,-1.21395 -2.76931,-0.67994 0.13855,-0.5643 3.54043,-3.21835 0.82511,0.20259 -0.94658,3.85522 1.00056,0.24566 -0.13855,0.5643 -1.00056,-0.24567 -0.29806,1.21395 1.00056,0.24566 -0.13622,0.55481 m -1.07738,-2.73822 0.75796,-3.08702 -2.83968,2.57589 2.08172,0.51113"
           inkscape:connector-curvature="0" />
        <path
           id="path3824"
           style="line-height:125%;font-family:Anonymous Pro;-inkscape-font-specification:Anonymous Pro"
           d="m 288.57472,422.42507 -2.43075,-1.24161 0.25988,-0.50877 0.9175,0.46866 1.97903,-3.8744 c -0.11289,0.0922 -0.26066,0.17755 -0.44331,0.25605 -0.18118,0.0756 -0.37746,0.13069 -0.58885,0.16527 -0.20991,0.0317 -0.42689,0.0378 -0.65091,0.0184 -0.22114,-0.0179 -0.43027,-0.0772 -0.62739,-0.17791 l 0.3154,-0.61747 c 0.17683,0.0903 0.39485,0.13224 0.65404,0.12573 0.25919,-0.007 0.51799,-0.0516 0.77639,-0.13527 0.2584,-0.0837 0.49966,-0.20534 0.72378,-0.36501 0.22411,-0.15966 0.39095,-0.34676 0.50053,-0.56128 l 0.60008,0.30651 -2.63871,5.16588 0.91316,0.46644 -0.25987,0.50876"
           inkscape:connector-curvature="0" />
        <path
           id="path3826"
           style="line-height:125%;font-family:Anonymous Pro;-inkscape-font-specification:Anonymous Pro"
           d="m 295.2073,424.02604 c -0.17354,0.25989 -0.38496,0.47099 -0.63426,0.63332 -0.24931,0.16232 -0.51617,0.27181 -0.8006,0.32848 -0.27993,0.0558 -0.57154,0.0528 -0.87484,-0.009 -0.30331,-0.0616 -0.59574,-0.18643 -0.87728,-0.37443 -0.25447,-0.16992 -0.46468,-0.36509 -0.63064,-0.58551 -0.16596,-0.22041 -0.28451,-0.45614 -0.35564,-0.70718 -0.0684,-0.24923 -0.084,-0.51016 -0.0468,-0.78279 0.0372,-0.27263 0.13358,-0.54882 0.28908,-0.82858 l 0.59701,0.27535 c -0.10668,0.19494 -0.17815,0.39576 -0.21442,0.60248 -0.0345,0.20402 -0.0319,0.39948 0.008,0.5864 0.0396,0.18691 0.11484,0.36438 0.22577,0.53239 0.11272,0.1653 0.26113,0.30941 0.44522,0.43233 0.21657,0.14462 0.43228,0.23777 0.64712,0.27946 0.21936,0.0408 0.43108,0.0373 0.63515,-0.0104 0.20588,-0.0504 0.396,-0.13874 0.57034,-0.26501 0.17885,-0.12716 0.33245,-0.28685 0.4608,-0.47906 0.13377,-0.20033 0.22511,-0.40746 0.27402,-0.62139 0.0534,-0.21484 0.0635,-0.42338 0.0303,-0.62564 -0.0333,-0.20226 -0.11166,-0.39553 -0.2352,-0.5798 -0.11904,-0.18517 -0.28143,-0.34644 -0.48717,-0.48383 -0.21658,-0.14461 -0.45576,-0.23778 -0.71755,-0.27951 -0.25728,-0.0426 -0.51685,-0.0261 -0.77873,0.0495 l -0.55632,-0.37148 1.76792,-2.64759 3.31761,2.21531 -0.31725,0.47511 -2.76129,-1.84384 -1.1063,1.65678 c 0.26727,-0.0485 0.5318,-0.0461 0.79358,0.007 0.26629,0.0526 0.50773,0.15115 0.7243,0.29577 0.27342,0.18257 0.49401,0.39445 0.66176,0.63563 0.16955,0.23848 0.28266,0.49406 0.33934,0.76676 0.0585,0.26999 0.056,0.55212 -0.007,0.8464 -0.0634,0.29427 -0.19184,0.58625 -0.38526,0.87591"
           inkscape:connector-curvature="0" />
        <path
           id="path3828"
           style="line-height:125%;font-family:Anonymous Pro;-inkscape-font-specification:Anonymous Pro"
           d="m 301.41362,432.51079 -1.86126,-1.99646 0.41786,-0.38957 0.70255,0.75359 3.18218,-2.9667 c -0.13758,0.0481 -0.3056,0.078 -0.50407,0.0894 -0.1961,0.009 -0.3994,-0.006 -0.60991,-0.0456 -0.20812,-0.0418 -0.41417,-0.11009 -0.61814,-0.20476 -0.20175,-0.0923 -0.3781,-0.21939 -0.52904,-0.3813 l 0.50715,-0.4728 c 0.13541,0.14524 0.32604,0.25902 0.5719,0.34133 0.24586,0.0823 0.50451,0.12824 0.77596,0.13775 0.27143,0.01 0.53973,-0.0225 0.80488,-0.0962 0.26514,-0.0736 0.4858,-0.19257 0.662,-0.35683 l 0.45949,0.49286 -4.24291,3.9556 0.69922,0.75001 -0.41786,0.38957"
           inkscape:connector-curvature="0" />
        <path
           id="path3830"
           style="line-height:125%;font-family:Anonymous Pro;-inkscape-font-specification:Anonymous Pro"
           d="m 307.18667,436.33363 c -0.28298,0.20861 -0.57191,0.34881 -0.86678,0.4206 -0.29294,0.0744 -0.58114,0.0867 -0.86459,0.0368 -0.2789,-0.0492 -0.54561,-0.15587 -0.80012,-0.32008 -0.25452,-0.16422 -0.47932,-0.37864 -0.67441,-0.64328 -0.2685,-0.3642 -0.42016,-0.72354 -0.455,-1.078 -0.0322,-0.3564 0.0175,-0.7004 0.14913,-1.03201 0.13357,-0.32899 0.33508,-0.64537 0.60452,-0.94915 0.27137,-0.30116 0.57868,-0.57826 0.92192,-0.8313 0.34848,-0.2569 0.71539,-0.45864 1.10073,-0.60521 0.38726,-0.14395 0.77068,-0.21631 1.15026,-0.21709 0.3822,-0.003 0.74483,0.0778 1.0879,0.24139 0.34499,0.16626 0.65173,0.43149 0.92023,0.7957 0.37472,0.50831 0.50981,1.06185 0.40528,1.66062 l -0.57519,-0.12193 c 0.0829,-0.42511 -0.0137,-0.82501 -0.28993,-1.1997 -0.20283,-0.27511 -0.43487,-0.48016 -0.69613,-0.61513 -0.25934,-0.13235 -0.53549,-0.19973 -0.82844,-0.20215 -0.28841,-0.002 -0.59101,0.0596 -0.9078,0.18394 -0.31224,0.12504 -0.62557,0.30345 -0.93998,0.53524 0.16066,-0.0618 0.33762,-0.0851 0.53086,-0.0699 0.19324,0.0153 0.38104,0.0588 0.5634,0.13063 0.18497,0.0699 0.35933,0.16377 0.52309,0.28166 0.16829,0.11858 0.31039,0.25647 0.42629,0.41368 0.19702,0.26726 0.33274,0.54736 0.40715,0.8403 0.077,0.29101 0.0932,0.57631 0.0486,0.8559 -0.0401,0.28027 -0.13995,0.54801 -0.2996,0.80322 -0.15773,0.25782 -0.37154,0.48621 -0.64141,0.68517 m -0.39694,-0.53845 c 0.19388,-0.14294 0.35246,-0.30635 0.47573,-0.49023 0.12781,-0.1832 0.21273,-0.37522 0.25476,-0.57605 0.042,-0.20083 0.0385,-0.40855 -0.0105,-0.62315 -0.0471,-0.21199 -0.14499,-0.41886 -0.29372,-0.62061 -0.14681,-0.19913 -0.31477,-0.3584 -0.50389,-0.4778 -0.1872,-0.11678 -0.38321,-0.19066 -0.58804,-0.22165 -0.20483,-0.031 -0.41262,-0.0193 -0.62336,0.0349 -0.20619,0.055 -0.40754,0.15486 -0.60405,0.29972 -0.19389,0.14294 -0.35799,0.30436 -0.49229,0.48425 -0.13168,0.17795 -0.22246,0.37025 -0.27234,0.57687 -0.0499,0.20663 -0.0529,0.41918 -0.009,0.63764 0.0457,0.22109 0.15162,0.4443 0.31774,0.66964 0.14293,0.19389 0.30476,0.34757 0.48547,0.46104 0.18526,0.11416 0.38031,0.18674 0.58514,0.21772 0.20483,0.031 0.41689,0.0142 0.63618,-0.0504 0.22122,-0.062 0.43533,-0.16927 0.64233,-0.32187"
           inkscape:connector-curvature="0" />
        <path
           id="path3832"
           style="line-height:125%;font-family:Anonymous Pro;-inkscape-font-specification:Anonymous Pro"
           d="m 310.06966,446.35547 -1.07574,-2.50857 0.52505,-0.22515 0.40605,0.94688 3.99845,-1.71463 c -0.14576,-10e-4 -0.31396,-0.0301 -0.5046,-0.0864 -0.18765,-0.0577 -0.37382,-0.14076 -0.55849,-0.24929 -0.18168,-0.10981 -0.35247,-0.24377 -0.51236,-0.40189 -0.15861,-0.15512 -0.28153,-0.3344 -0.36877,-0.53784 l 0.63724,-0.27327 c 0.0783,0.1825 0.21913,0.35409 0.42262,0.51475 0.20349,0.16068 0.43134,0.29142 0.68355,0.39224 0.2522,0.10082 0.51551,0.16146 0.78993,0.18192 0.27441,0.0205 0.52231,-0.0168 0.7437,-0.11172 l 0.26557,0.61929 -5.33128,2.28617 0.40413,0.9424 -0.52505,0.22515"
           inkscape:connector-curvature="0" />
        <path
           id="path3834"
           style="line-height:125%;font-family:Anonymous Pro;-inkscape-font-specification:Anonymous Pro"
           d="m 317.6166,450.69941 c -0.52921,-0.26018 -1.02942,-0.44579 -1.50061,-0.55681 -0.47121,-0.11103 -0.94534,-0.16344 -1.42239,-0.15725 -0.47394,0.005 -0.967,0.0604 -1.47918,0.16534 -0.50906,0.10404 -1.06558,0.24258 -1.66956,0.41564 l -0.20067,-0.67388 c 0.56967,-0.16284 1.11354,-0.29253 1.63163,-0.38906 0.51901,-0.0934 1.02671,-0.1393 1.52308,-0.13766 0.49949,7.1e-4 0.992,0.0578 1.47755,0.17139 0.48554,0.11355 0.97718,0.29322 1.47493,0.53899 l -0.86676,-2.9108 -1.19801,0.35674 -0.16304,-0.54753 1.74554,-0.51978 1.21374,4.07606 -0.56625,0.16861"
           inkscape:connector-curvature="0" />
        <path
           id="path3836"
           style="line-height:125%;font-family:Anonymous Pro;-inkscape-font-specification:Anonymous Pro"
           d="m 313.50516,462.31619 -0.15452,-2.72512 0.57037,-0.0323 0.0583,1.02862 4.34361,-0.2463 c -0.13657,-0.0509 -0.28482,-0.13546 -0.44476,-0.25355 -0.15669,-0.11827 -0.30329,-0.25994 -0.4398,-0.425 -0.13327,-0.16524 -0.24805,-0.34947 -0.34434,-0.55268 -0.0961,-0.19996 -0.15044,-0.41043 -0.16296,-0.63143 l 0.69224,-0.0393 c 0.0112,0.19825 0.0851,0.40762 0.22147,0.62812 0.13639,0.2205 0.3059,0.42118 0.50853,0.60206 0.20261,0.18088 0.42939,0.32778 0.68034,0.44071 0.25093,0.11292 0.49664,0.16257 0.73715,0.14893 l 0.0381,0.67275 -5.79148,0.3284 0.058,1.02375 -0.57038,0.0323"
           inkscape:connector-curvature="0" />
        <path
           id="path3838"
           style="line-height:125%;font-family:Anonymous Pro;-inkscape-font-specification:Anonymous Pro"
           d="m 315.1236,468.84841 c -0.3347,-0.0199 -0.61707,-0.0971 -0.84712,-0.23144 -0.2268,-0.13417 -0.41189,-0.31151 -0.55529,-0.53201 -0.14358,-0.21725 -0.24433,-0.46946 -0.30223,-0.75661 -0.0579,-0.28715 -0.0774,-0.58995 -0.0584,-0.9084 0.0194,-0.32494 0.0747,-0.62492 0.1661,-0.89992 0.0914,-0.275 0.22135,-0.51346 0.3899,-0.71538 0.16836,-0.19868 0.3731,-0.35116 0.61422,-0.45746 0.24437,-0.1061 0.53391,-0.14918 0.8686,-0.12925 0.17222,0.0103 0.34423,0.0515 0.51602,0.12367 0.1716,0.0754 0.32865,0.1761 0.47116,0.30199 0.14556,0.12932 0.26205,0.28138 0.34948,0.45615 0.0905,0.17822 0.14261,0.37046 0.15641,0.57673 0.0301,-0.17756 0.0981,-0.3333 0.20392,-0.46722 0.1058,-0.13392 0.2266,-0.24575 0.36239,-0.33549 0.13558,-0.0865 0.28139,-0.15281 0.43741,-0.19896 0.15581,-0.0429 0.30358,-0.0602 0.44332,-0.0519 0.28594,0.017 0.53276,0.0888 0.74046,0.21531 0.21093,0.1267 0.38218,0.29016 0.51374,0.4904 0.13155,0.20023 0.22553,0.4292 0.28193,0.68692 0.0596,0.2579 0.0813,0.52333 0.0651,0.79629 -0.0163,0.27295 -0.0693,0.53393 -0.15914,0.78294 -0.0866,0.2492 -0.20707,0.4654 -0.36146,0.6486 -0.1544,0.1832 -0.34384,0.32518 -0.56833,0.42595 -0.22124,0.10095 -0.47483,0.14291 -0.76078,0.12589 -0.13973,-0.008 -0.28431,-0.0447 -0.43374,-0.10899 -0.14963,-0.0611 -0.28653,-0.14425 -0.4107,-0.24947 -0.12437,-0.10198 -0.23103,-0.22736 -0.32,-0.37614 -0.089,-0.14878 -0.13778,-0.31474 -0.14644,-0.49786 -0.0384,0.20641 -0.11297,0.3911 -0.22377,0.55408 -0.10755,0.16316 -0.24126,0.30031 -0.40115,0.41145 -0.15663,0.11132 -0.32462,0.19425 -0.50396,0.24879 -0.17954,0.0578 -0.35541,0.0815 -0.52763,0.0713 m 3.00716,-0.72092 c 0.35744,0.0213 0.64606,-0.0887 0.86588,-0.32997 0.22305,-0.24107 0.34765,-0.58094 0.37378,-1.01962 0.0261,-0.43867 -0.0573,-0.79093 -0.25011,-1.05677 -0.18962,-0.26566 -0.46315,-0.40913 -0.82059,-0.43041 -0.33469,-0.0199 -0.60831,0.0844 -0.82084,0.31307 -0.21255,0.22866 -0.33265,0.57532 -0.36033,1.03999 -0.0277,0.46467 0.0504,0.82314 0.23433,1.07541 0.18389,0.25226 0.44319,0.38836 0.77788,0.4083 m -2.96739,0.0531 c 0.23071,0.0137 0.43001,-0.02 0.5979,-0.10134 0.17095,-0.0779 0.31143,-0.19179 0.42146,-0.34176 0.11307,-0.14654 0.19817,-0.31593 0.25527,-0.50818 0.0604,-0.19207 0.0971,-0.39858 0.11028,-0.61954 0.0131,-0.22097 0.001,-0.43039 -0.036,-0.62825 -0.0339,-0.19768 -0.0982,-0.3776 -0.19286,-0.53977 -0.0916,-0.15872 -0.2176,-0.28851 -0.37791,-0.38937 -0.15724,-0.0974 -0.35122,-0.15299 -0.58193,-0.16673 -0.22747,-0.0136 -0.42667,0.0186 -0.59762,0.0965 -0.17114,0.0811 -0.3165,0.19474 -0.43607,0.34088 -0.11978,0.1494 -0.21309,0.31993 -0.27994,0.51161 -0.0636,0.19187 -0.10199,0.39828 -0.11515,0.61925 -0.0132,0.22096 4.5e-4,0.43047 0.0408,0.62854 0.0436,0.19825 0.11614,0.37703 0.21752,0.53634 0.10119,0.16255 0.23204,0.29263 0.39253,0.39024 0.1603,0.10085 0.35419,0.15805 0.58165,0.1716"
           inkscape:connector-curvature="0" />
      </g>
    </g>
  </g>
</svg>
